<svg width="32" height="34" viewBox="0 0 32 34" fill="none" xmlns="http://www.w3.org/2000/svg">
<path d="M0 9C0 6.79086 1.79086 5 4 5H22C24.2091 5 26 6.79086 26 9V27C26 29.2091 24.2091 31 22 31H4C1.79086 31 0 29.2091 0 27V9Z" fill="#DFBC9F"/>
<path d="M0 9C0 6.79086 1.79086 5 4 5H22C24.2091 5 26 6.79086 26 9V27C26 29.2091 24.2091 31 22 31H4C1.79086 31 0 29.2091 0 27V9Z" fill="#C09481"/>
<path d="M2 10H25V26C25 27.6569 23.6569 29 22 29H5C3.34315 29 2 27.6569 2 26V10Z" fill="#E6CDB1" stroke="#745061" stroke-width="2"/>
<path d="M4 12H23V26C23 26.5523 22.5523 27 22 27H5C4.44771 27 4 26.5523 4 26V12Z" fill="#C09481" fill-opacity="0.4"/>
<path d="M5 4H22C23.6569 4 25 5.34315 25 7V10C25 10.5523 24.5523 11 24 11H3C2.44772 11 2 10.5523 2 10V7C2 5.34315 3.34315 4 5 4Z" fill="#745061" stroke="#745061" stroke-width="2"/>
<rect x="10" y="14" width="3" height="3" fill="#745061" fill-opacity="0.5"/>
<rect x="14" y="14" width="3" height="3" fill="#745061" fill-opacity="0.5"/>
<rect x="18" y="14" width="3" height="3" fill="#745061" fill-opacity="0.5"/>
<rect x="6" y="18" width="3" height="3" fill="#745061" fill-opacity="0.5"/>
<rect x="10" y="18" width="3" height="3" fill="#745061" fill-opacity="0.5"/>
<rect x="14" y="18" width="3" height="3" fill="#745061" fill-opacity="0.5"/>
<rect x="18" y="18" width="3" height="3" fill="#745061" fill-opacity="0.5"/>
<rect x="6" y="22" width="3" height="3" fill="#745061" fill-opacity="0.5"/>
<rect x="10" y="22" width="3" height="3" fill="#745061" fill-opacity="0.5"/>
<rect x="14" y="22" width="3" height="3" fill="#745061" fill-opacity="0.5"/>
<circle cx="8" cy="7" r="3" fill="#D7B69E"/>
<rect x="6.5" y="0.5" width="3" height="8" rx="1.5" fill="#745061" stroke="#745061"/>
<circle cx="19" cy="7" r="3" fill="#D7B69E"/>
<rect x="17.5" y="0.5" width="3" height="8" rx="1.5" fill="#745061" stroke="#745061"/>
<path d="M15.2929 26.2929C14.9024 26.6834 14.9024 27.3166 15.2929 27.7071L20.2929 32.7071C20.6834 33.0976 21.3166 33.0976 21.7071 32.7071L30.7071 23.7071C31.0976 23.3166 31.0976 22.6834 30.7071 22.2929L28.7071 20.2929C28.3166 19.9024 27.6834 19.9024 27.2929 20.2929L21 26.5858L18.7071 24.2929C18.3166 23.9024 17.6834 23.9024 17.2929 24.2929L15.2929 26.2929Z" fill="#A1C41D"/>
<path d="M15.2929 26.2929C14.9024 26.6834 14.9024 27.3166 15.2929 27.7071L20.2929 32.7071C20.6834 33.0976 21.3166 33.0976 21.7071 32.7071L30.7071 23.7071C31.0976 23.3166 31.0976 22.6834 30.7071 22.2929L28.7071 20.2929C28.3166 19.9024 27.6834 19.9024 27.2929 20.2929L21 26.5858L18.7071 24.2929C18.3166 23.9024 17.6834 23.9024 17.2929 24.2929L15.2929 26.2929Z" fill="#E6CDB1" fill-opacity="0.2"/>
<path d="M15.2929 26.2929C14.9024 26.6834 14.9024 27.3166 15.2929 27.7071L20.2929 32.7071C20.6834 33.0976 21.3166 33.0976 21.7071 32.7071L30.7071 23.7071C31.0976 23.3166 31.0976 22.6834 30.7071 22.2929L28.7071 20.2929C28.3166 19.9024 27.6834 19.9024 27.2929 20.2929L21 26.5858L18.7071 24.2929C18.3166 23.9024 17.6834 23.9024 17.2929 24.2929L15.2929 26.2929Z" stroke="#745061" stroke-width="2" stroke-linejoin="round"/>
</svg>
