<svg width="34" height="33" viewBox="0 0 34 33" fill="none" xmlns="http://www.w3.org/2000/svg">
<path d="M0 5C0 3.89543 0.895431 3 2 3H18C19.1046 3 20 3.89543 20 5V23C20 24.1046 19.1046 25 18 25H3C1.34315 25 0 23.6569 0 22V5Z" fill="#6F5062" fill-opacity="0.5"/>
<rect x="2" y="1" width="19" height="22" rx="1" fill="#E6CDB1" stroke="#745061" stroke-width="2"/>
<rect x="5" y="4" width="13" height="16" fill="#BDA296"/>
<rect x="5" y="10" width="13" height="10" fill="#B096A1"/>
<rect x="5" y="15" width="13" height="5" fill="#8D7181"/>
<path d="M18.1008 10.6326L21.7925 13.9904C22.1633 14.3276 22.6471 14.5133 23.1483 14.5108L28.1386 14.4858L26.086 19.0345C25.8798 19.4913 25.8527 20.0088 26.01 20.4847L27.5758 25.223L22.6155 24.6765C22.1174 24.6216 21.6168 24.7557 21.2128 25.0523L17.1903 28.0058L16.1772 23.1193C16.0755 22.6286 15.7932 22.194 15.3863 21.9014L11.3343 18.9885L15.6686 16.515C16.1038 16.2666 16.43 15.8638 16.5825 15.3864L18.1008 10.6326Z" fill="#FFC72D"/>
<path d="M18.1008 10.6326L21.7925 13.9904C22.1633 14.3276 22.6471 14.5133 23.1483 14.5108L28.1386 14.4858L26.086 19.0345C25.8798 19.4913 25.8527 20.0088 26.01 20.4847L27.5758 25.223L22.6155 24.6765C22.1174 24.6216 21.6168 24.7557 21.2128 25.0523L17.1903 28.0058L16.1772 23.1193C16.0755 22.6286 15.7932 22.194 15.3863 21.9014L11.3343 18.9885L15.6686 16.515C16.1038 16.2666 16.43 15.8638 16.5825 15.3864L18.1008 10.6326Z" fill="#E6CDB1" fill-opacity="0.2"/>
<path d="M18.1008 10.6326L21.7925 13.9904C22.1633 14.3276 22.6471 14.5133 23.1483 14.5108L28.1386 14.4858L26.086 19.0345C25.8798 19.4913 25.8527 20.0088 26.01 20.4847L27.5758 25.223L22.6155 24.6765C22.1174 24.6216 21.6168 24.7557 21.2128 25.0523L17.1903 28.0058L16.1772 23.1193C16.0755 22.6286 15.7932 22.194 15.3863 21.9014L11.3343 18.9885L15.6686 16.515C16.1038 16.2666 16.43 15.8638 16.5825 15.3864L18.1008 10.6326Z" stroke="#745061" stroke-width="2"/>
<path d="M8.8637 5.03504L10.7304 6.73283L13.2537 6.72018L12.2158 9.02016L13.0076 11.416L10.4994 11.1397L8.46551 12.6331L7.95326 10.1623L5.90446 8.6894L8.096 7.43872L8.8637 5.03504Z" fill="#745061"/>
<path d="M31 12L29 7L25 12L31 12Z" fill="#745061"/>
<path d="M7 26L9 29L14 26L7 26Z" fill="#745061"/>
<path d="M27 6L24 10V5L27 6Z" fill="#745061"/>
</svg>
