<svg width="52" height="55" viewBox="0 0 52 55" fill="none" xmlns="http://www.w3.org/2000/svg">
<path d="M2.54081 14.5954L2.54075 14.5954C1.30118 14.7738 0.414467 15.8437 0.506518 17.0653L0.506546 17.0657L1.34547 28.0919C2.25148 42.0573 14.1976 49.9962 25.8665 53.4791L26.0096 53.5218L26.1526 53.4791C37.8132 49.996 49.7498 42.0485 50.6647 28.0918C50.6647 28.091 50.6648 28.0902 50.6648 28.0894L51.4947 17.0653L51.495 17.0606C51.5751 15.8465 50.6861 14.7653 49.4591 14.5952C47.0539 14.2492 44.9091 13.1801 43.2704 11.6245L43.27 11.6241C41.2655 9.72484 40.0339 7.09424 40.0339 4.19548C40.0339 3.15143 39.3066 2.22727 38.3073 1.95987C37.639 1.77758 35.5367 1.4136 33.1419 1.09666C30.7373 0.778419 27.9811 0.5 26.0006 0.5C24.0202 0.5 21.2639 0.778419 18.8593 1.09666C16.4645 1.4136 14.3622 1.77758 13.6939 1.95987C12.6946 2.22728 11.9673 3.15143 11.9673 4.19548C11.9673 7.09424 10.7357 9.72484 8.73118 11.6241L8.7299 11.6254C7.10085 13.1799 4.94733 14.2494 2.54081 14.5954Z" fill="#745061" stroke="url(#paint0_linear_260_338197)"/>
<g clip-path="url(#clip0_260_338197)">
<path d="M4.39227 16.189C3.48171 16.3148 2.83897 17.0948 2.91039 17.9587L3.67811 28.04C4.49939 40.5032 15.2832 49.2006 25.9955 52.3626C36.7079 49.2006 47.4917 40.5032 48.3129 28.04L49.0807 17.9587C49.1432 17.0948 48.5093 16.3148 47.5988 16.189C45.2778 15.8619 43.2067 14.8387 41.6266 13.3542C39.6895 11.5342 38.4933 9.01804 38.4933 6.23353C38.4933 5.48708 37.9666 4.8245 37.2435 4.63159C36.083 4.32127 29.5931 3.31482 25.9955 3.31482C22.398 3.31482 15.9081 4.32127 14.7475 4.63159C14.0245 4.8245 13.4978 5.48708 13.4978 6.23353C13.4978 9.01804 12.3016 11.5342 10.3644 13.3542C8.78433 14.8387 6.71328 15.8619 4.39227 16.189Z" fill="#002A54"/>
<path d="M25.9955 3.31482V52.3626C36.7079 49.2006 47.4917 40.5032 48.3129 28.04L49.0807 17.9587C49.1432 17.0948 48.5093 16.3148 47.5988 16.189C45.2778 15.8619 43.2067 14.8387 41.6266 13.3542C39.6895 11.5342 38.4933 9.01804 38.4933 6.23353C38.4933 5.48708 37.9666 4.8245 37.2435 4.63159C36.083 4.32127 29.5931 3.31482 25.9955 3.31482Z" fill="#CDEBEE"/>
<path fill-rule="evenodd" clip-rule="evenodd" d="M2.9104 17.9587C2.83898 17.0948 3.48172 16.3148 4.39227 16.189C6.71328 15.8619 8.78434 14.8387 10.3644 13.3542C12.3016 11.5342 13.4978 9.01804 13.4978 6.23353C13.4978 5.48708 14.0245 4.8245 14.7476 4.63159C15.9081 4.32127 22.398 3.31482 25.9955 3.31482C29.5931 3.31482 36.083 4.32127 37.2435 4.63159C37.9666 4.8245 38.4933 5.48708 38.4933 6.23353C38.4933 9.01804 39.6895 11.5342 41.6266 13.3542C43.2067 14.8387 45.2778 15.8619 47.5988 16.189C48.5093 16.3148 49.1432 17.0948 49.0807 17.9587L48.3129 28.04C48.2616 28.8189 48.1714 29.5832 48.0447 30.3323C46.144 41.5688 36.0384 49.3982 25.9955 52.3626C15.2832 49.2006 4.4994 40.5032 3.67812 28.04L2.9104 17.9587Z" fill="url(#paint1_linear_260_338197)"/>
<path d="M47.0096 18.3613L45.6884 15.7361C44.1441 15.2329 42.7604 14.4109 41.6356 13.3542C39.6984 11.5342 38.5022 9.01804 38.5022 6.23353C38.5022 5.48708 37.9755 4.8245 37.2524 4.63159C36.0919 4.32127 29.602 3.31482 26.0045 3.31482C22.4069 3.31482 15.917 4.32127 14.7565 4.63159C14.0334 4.8245 13.5067 5.48708 13.5067 6.23353C13.5067 9.01804 12.3105 11.5342 10.3733 13.3542C9.07 14.5787 7.42743 15.4845 5.58848 15.9458L4.99037 18.3529L6.59723 19.1748H45.4206L47.0185 18.3529L47.0096 18.3613Z" fill="#002A54"/>
<path d="M25.9955 47.9845C35.0028 44.9735 44.0548 38.3226 44.7511 27.8303L45.4117 19.1748C43.046 18.5709 40.8857 17.3967 39.1092 15.7277C36.7614 13.5219 34.4404 9.84836 34.1101 6.77868C34.1101 6.77868 29.5038 5.88965 26.0044 5.88965C22.5051 5.88965 17.8988 6.77868 17.8988 6.77868C17.5685 9.84836 15.2475 13.5219 12.8997 15.7277C11.1232 17.3967 8.95394 18.5709 6.59722 19.1748L7.24889 27.7967C7.94519 38.3142 16.9971 44.9735 26.0044 47.9845H25.9955Z" fill="#00C6FB"/>
<path d="M25.9955 47.9845C35.0028 44.9735 44.0548 38.3226 44.7511 27.8303L45.4117 19.1748C43.046 18.5709 40.8857 17.3967 39.1092 15.7277C36.7614 13.5219 34.4404 9.84836 34.1101 6.77868C34.1101 6.77868 29.5038 5.88965 26.0044 5.88965C22.5051 5.88965 17.8988 6.77868 17.8988 6.77868C17.5685 9.84836 15.2475 13.5219 12.8997 15.7277C11.1232 17.3967 8.95394 18.5709 6.59722 19.1748L7.24889 27.7967C7.94519 38.3142 16.9971 44.9735 26.0044 47.9845H25.9955Z" fill="#002A54" fill-opacity="0.2"/>
<path d="M34.1012 6.77868C34.4315 9.84836 36.7525 13.5219 39.1003 15.7277C40.8768 17.3967 43.046 18.5709 45.4027 19.1748L44.7421 27.8303C44.0548 38.3142 35.0028 44.9735 25.9866 47.9845V5.88965C29.3342 5.88965 31.9141 6.35933 34.0923 6.77868H34.1012Z" fill="#2DA0F0"/>
<path d="M34.1012 6.77868C34.4315 9.84836 36.7525 13.5219 39.1003 15.7277C40.8768 17.3967 43.046 18.5709 45.4027 19.1748L44.7421 27.8303C44.0548 38.3142 35.0028 44.9735 25.9866 47.9845V5.88965C29.3342 5.88965 31.9141 6.35933 34.0923 6.77868H34.1012Z" fill="#002A54" fill-opacity="0.2"/>
<path d="M2.60718 15.0903C5.11565 14.7297 7.36525 13.6142 9.0703 11.9871C11.1681 9.99935 12.4625 7.24 12.4625 4.19548C12.4625 3.38194 13.0339 2.65226 13.8194 2.44258C15.0781 2.09871 22.1037 1 25.9958 1C29.888 1 36.9135 2.09871 38.1722 2.44258C38.9578 2.65226 39.5291 3.38194 39.5291 4.19548C39.5291 7.24 40.8235 9.99935 42.9214 11.9871C44.6353 13.6142 46.876 14.7297 49.3845 15.0903C50.3575 15.2245 51.0538 16.08 50.9913 17.0277L50.1611 28.0568C49.2684 41.6942 37.6009 49.5361 26.0048 53C14.3997 49.5361 2.72323 41.7026 1.83946 28.0568L1.00032 17.0277C0.928905 16.08 1.61628 15.2329 2.60718 15.0903ZM5.69591 27.7968C6.44577 39.3123 16.2476 45.8374 25.9958 49.1335C35.7441 45.8374 45.5459 39.3206 46.2958 27.8387L47.001 18.3697C44.4479 17.7071 42.1001 16.4239 40.1808 14.5955C37.6366 12.18 36.0922 9.06839 35.7351 5.72194C33.3517 5.31936 28.7007 4.68194 25.9958 4.68194C23.291 4.68194 18.64 5.31936 16.2565 5.72194C15.8994 9.08516 14.3551 12.18 11.8109 14.5955C9.89158 16.4239 7.53486 17.7071 4.98175 18.3697L5.69591 27.8052V27.7968Z" fill="url(#paint2_linear_260_338197)"/>
<path fill-rule="evenodd" clip-rule="evenodd" d="M18.8569 19.7611L18.857 19.7613L18.8568 19.7612L18.8566 19.7611H18.8569ZM21.3201 18.1481L21.3132 18.1535C21.365 17.9364 21.4022 17.7241 21.4022 17.5035L20.6222 17.1545L21.384 16.5934C21.2562 15.6479 20.8457 14.7555 20.3804 14C19.9152 14.4197 19.5275 14.9278 19.2082 15.5066C19.0576 15.7849 18.9299 16.0853 18.8159 16.3813C18.4421 17.4851 18.3872 18.6904 18.8515 19.7591C17.9764 19.4113 16.8292 19.2009 15.6776 19.5845C13.2053 20.4239 13 22.792 13 22.792L15.194 22.1956L15.3811 21.1794L15.8098 22.0365L17.5313 21.5658C16.2698 22.3878 15.6368 23.8232 15.769 25.9952C16.362 25.9245 16.9048 25.7478 17.4065 25.4517V25.4562L18.337 24.7714C18.6883 24.4577 18.9893 24.1042 19.2493 23.7022C19.2757 23.6618 19.3017 23.621 19.3273 23.5798C19.3373 24.479 19.6482 25.3856 20.3943 26.1891C20.7239 25.8835 20.9354 25.565 21.0634 25.2349C21.9124 26.934 22.6426 28.9726 22.9887 31.2134C22.6686 30.9393 22.2888 30.6863 21.8441 30.4969C20.9774 30.1258 19.5725 29.7458 18.0673 30.5455C19.3118 31.4238 20.5221 31.9969 21.7025 32.2976C20.5129 32.2208 19.6033 32.5183 18.2771 33.6072C19.0559 33.9112 20.0028 34.0213 20.9197 34.0042C18.7063 35.0659 17.6818 36.6649 17.4475 37.4772C17.4111 37.6009 17.3928 37.7069 17.3928 37.7909V37.8704C17.5661 39.4962 23.1082 39.9866 25.8542 39.9999H26.0093H26.2738C29.0107 39.9689 34.2882 39.4874 34.6121 37.9455C34.6137 37.936 34.6159 37.9272 34.6181 37.9184C34.622 37.9027 34.6258 37.8874 34.6258 37.8704V37.7909H34.644C34.644 37.7069 34.6257 37.6053 34.5893 37.4772C34.2879 36.4323 32.6791 34.0858 28.9143 33.2556C28.5409 30.6864 29.4803 27.5082 30.9706 25.8033L30.9661 25.8266C30.724 27.0916 30.5001 28.2614 31.6057 29.2863C32.3518 28.4827 32.6627 27.5759 32.6727 26.6766C32.6983 26.7179 32.7244 26.7588 32.7508 26.7994C33.0108 27.2014 33.3119 27.5549 33.6631 27.8685L34.5936 28.5533V28.5489C35.0954 28.8449 35.6382 29.0216 36.2312 29.0923C36.363 26.9261 35.7338 25.4927 34.4789 24.6695L36.1903 25.1375L36.6191 24.2804L36.8061 25.2966L39.0001 25.893C39.0001 25.893 38.7949 23.5249 36.3226 22.6855C35.1709 22.3019 34.0238 22.5123 33.1487 22.8601C33.613 21.7914 33.5581 20.5862 33.1843 19.4824C33.0702 19.1864 32.9425 18.886 32.792 18.6076C32.4727 18.0289 32.085 17.5208 31.6197 17.1011C31.1545 17.8566 30.7439 18.749 30.6162 19.6945L31.378 20.2556L30.598 20.6046C30.598 20.8238 30.6347 21.0347 30.686 21.2504L30.68 21.2458C30.1281 20.8128 29.4758 20.4726 28.7004 20.2561C28.4677 20.1855 28.2168 20.1369 27.9477 20.1104C27.3958 19.9999 26.7891 19.9646 26.114 20.0087C26.2737 20.8393 26.6751 21.5683 27.2133 22.1559L27.7105 22.6331C28.34 23.1588 29.047 23.552 29.786 23.7906L29.8241 23.8042C28.5127 23.7566 27.1699 24.1985 26.3507 25.4518C27.2994 25.9333 28.1086 25.7053 28.9367 25.3307C27.0289 27.2542 25.8245 30.6133 26.0209 32.9575L26.0184 32.9575L25.9545 32.9576C25.6056 28.8417 23.3023 24.0402 20.8838 21.8709C20.8572 21.6837 20.8363 21.4947 20.8248 21.3042C21.4395 21.4429 21.9932 21.713 22.5258 21.9729C23.5502 22.4727 24.4967 22.9346 25.6489 22.3497C24.8327 21.101 23.4967 20.6578 22.1898 20.7017L22.2142 20.6929C22.9531 20.4543 23.6601 20.0611 24.2896 19.5354L24.7868 19.0582C25.3251 18.4706 25.7265 17.7417 25.8861 16.9111C25.211 16.8669 24.6044 16.9022 24.0524 17.0127C23.7833 17.0392 23.5324 17.0878 23.2998 17.1585C22.5244 17.375 21.8721 17.7152 21.3201 18.1481ZM33.1432 22.8623L33.1432 22.8622H33.1434L33.1433 22.8622L33.1432 22.8623Z" fill="#ABDFED" fill-opacity="0.6"/>
</g>
<path d="M40.1805 14.5871C42.0998 16.4155 44.4476 17.6987 47.0007 18.3613L46.2955 27.8303C45.5456 39.3123 35.7438 45.829 25.9956 49.1252V53C37.5917 49.5361 49.2682 41.7026 50.152 28.0568L50.9822 17.0277C51.0536 16.08 50.3573 15.2329 49.3753 15.0903C46.8668 14.7297 44.6172 13.6142 42.9122 11.9871C40.8143 9.99935 39.5199 7.24 39.5199 4.19548C39.5199 3.38194 38.9486 2.65226 38.163 2.44258C36.9043 2.09871 29.8788 1 25.9866 1V4.67355C28.6915 4.67355 33.3425 5.31097 35.726 5.71355C36.0831 9.06 37.6274 12.1716 40.1716 14.5871H40.1805Z" fill="#89ABBB" fill-opacity="0.8"/>
<path d="M2.61196 15.0903C5.12044 14.7297 7.37003 13.6142 9.07508 11.9871C11.1729 9.99935 12.4673 7.24 12.4673 4.19548C12.4673 3.38194 13.0387 2.65226 13.8242 2.44258C15.0829 2.09871 22.1085 1 26.0006 1C29.8928 1 36.9183 2.09871 38.177 2.44258C38.9626 2.65226 39.5339 3.38194 39.5339 4.19548C39.5339 7.24 40.8283 9.99935 42.9261 11.9871C44.6401 13.6142 46.8808 14.7297 49.3893 15.0903C50.3623 15.2245 51.0586 16.08 50.9961 17.0277L50.1659 28.0568C49.2732 41.6942 37.6057 49.5361 26.0095 53C14.4045 49.5361 2.72801 41.7026 1.84424 28.0568L1.0051 17.0277C0.933689 16.08 1.62107 15.2329 2.61196 15.0903Z" fill="#E6CDB1" fill-opacity="0.2"/>
<defs>
<linearGradient id="paint0_linear_260_338197" x1="22" y1="44" x2="3.50002" y2="3.5" gradientUnits="userSpaceOnUse">
<stop offset="0.0576301" stop-color="#563047"/>
<stop offset="0.251023" stop-color="#4F3F59"/>
<stop offset="0.505325" stop-color="#3F6684"/>
<stop offset="0.634995" stop-color="#6F92A8"/>
<stop offset="0.790661" stop-color="#D8F2F6"/>
</linearGradient>
<linearGradient id="paint1_linear_260_338197" x1="35.3688" y1="45.72" x2="12.4948" y2="18.128" gradientUnits="userSpaceOnUse">
<stop stop-color="#CDEBEE"/>
<stop offset="1" stop-color="#002A54"/>
</linearGradient>
<linearGradient id="paint2_linear_260_338197" x1="10.8942" y1="6.2" x2="45.73" y2="44.2093" gradientUnits="userSpaceOnUse">
<stop stop-color="#CDEBEE"/>
<stop offset="1" stop-color="#568499"/>
</linearGradient>
<clipPath id="clip0_260_338197">
<rect width="49.991" height="52" fill="white" transform="translate(1.00002 1)"/>
</clipPath>
</defs>
</svg>
