<svg width="13" height="20" viewBox="0 0 13 20" fill="none" xmlns="http://www.w3.org/2000/svg">
<path d="M4.69028 5.8209C4.93711 5.40512 5.32105 5.07249 5.97925 5.07249C6.80199 5.07249 7.32306 5.57143 7.32306 6.37527C7.32306 7.78891 4.66286 8.84222 4.08694 11.8081C3.94981 12.4179 4.41603 13 5.04681 13H7.92641C8.44748 13 8.9137 12.6674 9.07825 12.1407C9.76387 9.89552 13 8.75906 13 5.46055C13 2.71642 11.19 0 6.44547 0C3.67557 0 1.20733 1.38593 0.0829143 4.07463C-0.163909 4.65672 0.165189 5.29424 0.74111 5.43284L3.89496 6.23667C4.22406 6.31983 4.55316 6.1258 4.69028 5.8209Z" fill="#684512"/>
<path d="M6.5 15C7.90306 15 9 16.1224 9 17.5C9 18.9031 7.90306 20 6.5 20C5.12245 20 4 18.9031 4 17.5C4 16.1224 5.12245 15 6.5 15Z" fill="#684512"/>
</svg>
