<svg width="55" height="57" viewBox="0 0 55 57" fill="none" xmlns="http://www.w3.org/2000/svg">
<path opacity="0.6" d="M41.3073 3.95987C42.3066 4.22727 43.0339 5.15142 43.0339 6.19548C43.0339 9.09424 44.2655 11.7248 46.27 13.6241L46.2704 13.6245C47.909 15.1801 50.0539 16.2492 52.4591 16.5952C53.6861 16.7653 54.5751 17.8465 54.495 19.0606L54.4947 19.0653L53.6648 30.0894C53.6648 30.0902 53.6647 30.091 53.6647 30.0918C52.7498 44.0485 40.8132 51.996 29.1526 55.4791L29.0096 55.5218L28.8665 55.4791C17.1976 51.9962 5.25147 44.0573 4.34545 30.0919L3.50653 19.0657L3.5065 19.0653C3.41445 17.8437 4.30116 16.7738 5.54073 16.5954L5.54079 16.5954C7.94731 16.2494 10.1008 15.1799 11.7299 13.6254L11.7312 13.6241C13.7357 11.7248 14.9673 9.09424 14.9673 6.19548C14.9673 5.15143 15.6946 4.22728 16.6939 3.95987C17.3622 3.77758 19.4645 3.4136 21.8593 3.09666C24.2602 2.77891 27.0117 2.50085 28.9915 2.5C28.9945 2.5 28.9976 2.5 29.0006 2.5M41.3073 3.95987H41.2982C40.6298 3.77758 38.5276 3.4136 36.1328 3.09666C33.7319 2.77891 30.9804 2.50085 29.0006 2.5M41.3073 3.95987C40.639 3.77758 38.5367 3.4136 36.1419 3.09666C33.7373 2.77842 30.981 2.5 29.0006 2.5M41.3073 3.95987L29.0006 2.5" fill="#472C3C" stroke="#472C3C"/>
<path d="M38.3073 1.95987C39.3066 2.22727 40.0339 3.15142 40.0339 4.19548C40.0339 7.09424 41.2655 9.72484 43.27 11.6241L43.2704 11.6245C44.909 13.1801 47.0539 14.2492 49.4591 14.5952C50.6861 14.7653 51.5751 15.8465 51.495 17.0606L51.4947 17.0653L50.6648 28.0894C50.6648 28.0902 50.6647 28.091 50.6647 28.0918C49.7498 42.0485 37.8132 49.996 26.1526 53.4791L26.0096 53.5218L25.8665 53.4791C14.1976 49.9962 2.25147 42.0573 1.34545 28.0919L0.506531 17.0657L0.506503 17.0653C0.414451 15.8437 1.30116 14.7738 2.54073 14.5954L2.54079 14.5954C4.94731 14.2494 7.10084 13.1799 8.72988 11.6254L8.73116 11.6241C10.7357 9.72484 11.9673 7.09424 11.9673 4.19548C11.9673 3.15143 12.6946 2.22728 13.6939 1.95987C14.3622 1.77758 16.4645 1.4136 18.8593 1.09666C21.2602 0.778908 24.0117 0.500854 25.9915 0.5C25.9945 0.499999 25.9976 0.5 26.0006 0.5M38.3073 1.95987H38.2982C37.6298 1.77758 35.5276 1.4136 33.1328 1.09666C30.7319 0.778908 27.9804 0.500854 26.0006 0.5M38.3073 1.95987C37.639 1.77758 35.5367 1.4136 33.1419 1.09666C30.7373 0.778419 27.981 0.5 26.0006 0.5M38.3073 1.95987L26.0006 0.5" fill="#745061" stroke="url(#paint0_linear_20_165)"/>
<g clip-path="url(#clip0_20_165)">
<path d="M4.39232 16.189C3.48177 16.3148 2.83903 17.0948 2.91044 17.9587L3.67816 28.04C4.49944 40.5032 15.2832 49.2006 25.9956 52.3626C36.7079 49.2006 47.4917 40.5032 48.313 28.04L49.0807 17.9587C49.1432 17.0948 48.5094 16.3148 47.5988 16.189C45.2778 15.8619 43.2068 14.8387 41.6267 13.3542C39.6895 11.5342 38.4933 9.01806 38.4933 6.23355C38.4933 5.4871 37.9666 4.82452 37.2436 4.63161C36.083 4.32129 29.5931 3.31484 25.9956 3.31484C22.398 3.31484 15.9081 4.32129 14.7476 4.63161C14.0245 4.82452 13.4978 5.4871 13.4978 6.23355C13.4978 9.01806 12.3016 11.5342 10.3645 13.3542C8.78439 14.8387 6.71333 15.8619 4.39232 16.189Z" fill="#002A54"/>
<path d="M25.9956 3.31484V52.3626C36.708 49.2006 47.4917 40.5032 48.313 28.04L49.0807 17.9587C49.1432 17.0948 48.5094 16.3148 47.5989 16.189C45.2779 15.8619 43.2068 14.8387 41.6267 13.3542C39.6896 11.5342 38.4934 9.01806 38.4934 6.23355C38.4934 5.4871 37.9667 4.82452 37.2436 4.63161C36.0831 4.32129 29.5932 3.31484 25.9956 3.31484Z" fill="#CDEBEE"/>
<path fill-rule="evenodd" clip-rule="evenodd" d="M2.91044 17.9587C2.83903 17.0948 3.48177 16.3148 4.39232 16.189C6.71333 15.8619 8.78439 14.8387 10.3645 13.3542C12.3016 11.5342 13.4978 9.01806 13.4978 6.23355C13.4978 5.4871 14.0245 4.82452 14.7476 4.63161C15.9081 4.32129 22.398 3.31484 25.9956 3.31484C29.5931 3.31484 36.083 4.32129 37.2436 4.63161C37.9666 4.82452 38.4933 5.4871 38.4933 6.23355C38.4933 9.01806 39.6895 11.5342 41.6267 13.3542C43.2068 14.8387 45.2778 15.8619 47.5988 16.189C48.5094 16.3148 49.1432 17.0948 49.0807 17.9587L48.313 28.04C48.2617 28.819 48.1714 29.5832 48.0447 30.3323C46.144 41.5688 36.0384 49.3983 25.9956 52.3626C15.2832 49.2006 4.49944 40.5032 3.67816 28.04L2.91044 17.9587Z" fill="url(#paint1_linear_20_165)"/>
<path d="M47.0095 18.3613L45.6883 15.7361C44.1439 15.2329 42.7602 14.411 41.6354 13.3542C39.6983 11.5342 38.5021 9.01806 38.5021 6.23355C38.5021 5.4871 37.9754 4.82452 37.2523 4.63161C36.0918 4.32129 29.6019 3.31484 26.0043 3.31484C22.4067 3.31484 15.9168 4.32129 14.7563 4.63161C14.0333 4.82452 13.5066 5.4871 13.5066 6.23355C13.5066 9.01806 12.3103 11.5342 10.3732 13.3542C9.06986 14.5787 7.4273 15.4845 5.58834 15.9458L4.99023 18.3529L6.59709 19.1748H45.4205L47.0184 18.3529L47.0095 18.3613Z" fill="#002A54"/>
<path d="M25.9955 47.9845C35.0028 44.9736 44.0547 38.3226 44.751 27.8303L45.4116 19.1748C43.046 18.571 40.8856 17.3968 39.1092 15.7277C36.7614 13.5219 34.4404 9.84839 34.1101 6.77871C34.1101 6.77871 29.5038 5.88968 26.0044 5.88968C22.505 5.88968 17.8987 6.77871 17.8987 6.77871C17.5684 9.84839 15.2474 13.5219 12.8996 15.7277C11.1231 17.3968 8.95389 18.571 6.59717 19.1748L7.24884 27.7968C7.94514 38.3142 16.9971 44.9736 26.0044 47.9845H25.9955Z" fill="#00C6FB"/>
<path d="M25.9955 47.9845C35.0028 44.9736 44.0547 38.3226 44.751 27.8303L45.4116 19.1748C43.046 18.571 40.8856 17.3968 39.1092 15.7277C36.7614 13.5219 34.4404 9.84839 34.1101 6.77871C34.1101 6.77871 29.5038 5.88968 26.0044 5.88968C22.505 5.88968 17.8987 6.77871 17.8987 6.77871C17.5684 9.84839 15.2474 13.5219 12.8996 15.7277C11.1231 17.3968 8.95389 18.571 6.59717 19.1748L7.24884 27.7968C7.94514 38.3142 16.9971 44.9736 26.0044 47.9845H25.9955Z" fill="#002A54" fill-opacity="0.2"/>
<path d="M34.1012 6.77871C34.4315 9.84839 36.7525 13.5219 39.1003 15.7277C40.8768 17.3968 43.046 18.571 45.4027 19.1748L44.7421 27.8303C44.0548 38.3142 35.0028 44.9736 25.9866 47.9845V5.88968C29.3342 5.88968 31.9141 6.35936 34.0923 6.77871H34.1012Z" fill="#2DA0F0"/>
<path d="M34.1012 6.77871C34.4315 9.84839 36.7525 13.5219 39.1003 15.7277C40.8768 17.3968 43.046 18.571 45.4027 19.1748L44.7421 27.8303C44.0548 38.3142 35.0028 44.9736 25.9866 47.9845V5.88968C29.3342 5.88968 31.9141 6.35936 34.0923 6.77871H34.1012Z" fill="#002A54" fill-opacity="0.2"/>
<path d="M2.60706 15.0903C5.11554 14.7297 7.36513 13.6142 9.07018 11.9871C11.168 9.99935 12.4624 7.24 12.4624 4.19548C12.4624 3.38194 13.0338 2.65226 13.8193 2.44258C15.078 2.09871 22.1036 1 25.9957 1C29.8879 1 36.9134 2.09871 38.1721 2.44258C38.9577 2.65226 39.529 3.38194 39.529 4.19548C39.529 7.24 40.8234 9.99935 42.9212 11.9871C44.6352 13.6142 46.8759 14.7297 49.3844 15.0903C50.3574 15.2245 51.0537 16.08 50.9912 17.0277L50.161 28.0568C49.2683 41.6942 37.6008 49.5361 26.0046 53C14.3996 49.5361 2.72311 41.7026 1.83934 28.0568L1.00021 17.0277C0.928791 16.08 1.61617 15.2329 2.60706 15.0903ZM5.69579 27.7968C6.44566 39.3123 16.2475 45.8374 25.9957 49.1335C35.744 45.8374 45.5458 39.3206 46.2956 27.8387L47.0009 18.3697C44.4478 17.7071 42.1 16.4239 40.1807 14.5955C37.6365 12.18 36.0921 9.06839 35.735 5.72194C33.3515 5.31935 28.7006 4.68194 25.9957 4.68194C23.2908 4.68194 18.6399 5.31935 16.2564 5.72194C15.8993 9.08516 14.3549 12.18 11.8108 14.5955C9.89147 16.4239 7.53475 17.7071 4.98163 18.3697L5.69579 27.8052V27.7968Z" fill="url(#paint2_linear_20_165)"/>
</g>
<path d="M40.1805 14.5871C42.0997 16.4155 44.4475 17.6987 47.0007 18.3613L46.2954 27.8303C45.5456 39.3123 35.7437 45.829 25.9955 49.1252V53C37.5916 49.5361 49.2681 41.7026 50.1519 28.0568L50.9821 17.0277C51.0535 16.08 50.3572 15.2329 49.3752 15.0903C46.8667 14.7297 44.6172 13.6142 42.9121 11.9871C40.8143 9.99935 39.5199 7.24 39.5199 4.19548C39.5199 3.38194 38.9485 2.65226 38.163 2.44258C36.9043 2.09871 29.8787 1 25.9866 1V4.67355C28.6914 4.67355 33.3424 5.31097 35.7259 5.71355C36.083 9.06 37.6273 12.1716 40.1715 14.5871H40.1805Z" fill="#89ABBB" fill-opacity="0.8"/>
<path d="M2.61194 15.0903C5.12042 14.7297 7.37002 13.6142 9.07507 11.9871C11.1729 9.99935 12.4673 7.24 12.4673 4.19548C12.4673 3.38194 13.0386 2.65226 13.8242 2.44258C15.0829 2.09871 22.1084 1 26.0006 1C29.8928 1 36.9183 2.09871 38.177 2.44258C38.9626 2.65226 39.5339 3.38194 39.5339 4.19548C39.5339 7.24 40.8283 9.99935 42.9261 11.9871C44.6401 13.6142 46.8808 14.7297 49.3893 15.0903C50.3623 15.2245 51.0586 16.08 50.9961 17.0277L50.1659 28.0568C49.2732 41.6942 37.6057 49.5361 26.0095 53C14.4045 49.5361 2.72799 41.7026 1.84422 28.0568L1.00509 17.0277C0.933674 16.08 1.62105 15.2329 2.61194 15.0903Z" fill="#E6CDB1" fill-opacity="0.2"/>
<defs>
<linearGradient id="paint0_linear_20_165" x1="22" y1="44" x2="3.5" y2="3.5" gradientUnits="userSpaceOnUse">
<stop offset="0.0576301" stop-color="#563047"/>
<stop offset="0.251023" stop-color="#4F3F59"/>
<stop offset="0.505325" stop-color="#3F6684"/>
<stop offset="0.634995" stop-color="#6F92A8"/>
<stop offset="0.790661" stop-color="#D8F2F6"/>
</linearGradient>
<linearGradient id="paint1_linear_20_165" x1="35.3689" y1="45.72" x2="12.4949" y2="18.128" gradientUnits="userSpaceOnUse">
<stop stop-color="#CDEBEE"/>
<stop offset="1" stop-color="#002A54"/>
</linearGradient>
<linearGradient id="paint2_linear_20_165" x1="10.8941" y1="6.2" x2="45.7299" y2="44.2093" gradientUnits="userSpaceOnUse">
<stop stop-color="#CDEBEE"/>
<stop offset="1" stop-color="#568499"/>
</linearGradient>
<clipPath id="clip0_20_165">
<rect width="49.991" height="52" fill="white" transform="translate(1 1)"/>
</clipPath>
</defs>
</svg>
