<svg width="30" height="28" viewBox="0 0 30 28" fill="none" xmlns="http://www.w3.org/2000/svg">
<path d="M22 15.6491C22 16.4193 22.8258 16.8515 23.27 16.2223C23.7299 15.5709 24 14.776 24 13.918C24 13.06 23.7299 12.2651 23.27 11.6137C22.8258 10.9845 22 11.4167 22 12.1869V15.6491Z" fill="#684512"/>
<path d="M22 20.3183C22 21.0019 22.6486 21.5021 23.2723 21.2222C26.0591 19.9714 28 17.1723 28 13.9198C28 10.6674 26.0591 7.86823 23.2723 6.61751C22.6486 6.3376 22 6.83781 22 7.52142C22 7.96481 22.284 8.35209 22.6806 8.55045C24.6487 9.53489 26 11.5696 26 13.9198C26 16.2701 24.6487 18.3048 22.6806 19.2892C22.284 19.4876 22 19.8749 22 20.3183Z" fill="#684512"/>
<path d="M3 10C3 9.44772 3.44772 9 4 9H7V19H4C3.44772 19 3 18.5523 3 18V10Z" stroke="#684512" stroke-width="2"/>
<path d="M3 15C3 14.4477 3.44772 14 4 14H7V19H4C3.44772 19 3 18.5523 3 18V15Z" fill="#684512" stroke="#684512" stroke-width="2"/>
<path d="M10 8.96125C10 8.65747 10.1381 8.37015 10.3753 8.18038L16.3753 3.38038C17.0301 2.85657 18 3.32274 18 4.16125V23.8388C18 24.6773 17.0301 25.1434 16.3753 24.6196L10.3753 19.8196C10.1381 19.6298 10 19.3425 10 19.0387V8.96125Z" stroke="#684512" stroke-width="2"/>
<path d="M10 14H18V23H16.3459L10 18.014V14Z" fill="#684512" stroke="#684512" stroke-width="2"/>
</svg>
