<svg width="23" height="26" viewBox="0 0 23 26" fill="none" xmlns="http://www.w3.org/2000/svg">
<mask id="path-1-outside-1_232_12141" maskUnits="userSpaceOnUse" x="0" y="5.5" width="18" height="20" fill="black">
<rect fill="white" y="5.5" width="18" height="20"/>
<path fill-rule="evenodd" clip-rule="evenodd" d="M10.9091 7.5L16 12.8333H16V21.5C16 22.6046 15.1046 23.5 14 23.5H6C3.79086 23.5 2 21.7091 2 19.5V9.5C2 8.39543 2.89543 7.5 4 7.5H10.9091Z"/>
</mask>
<path fill-rule="evenodd" clip-rule="evenodd" d="M10.9091 7.5L16 12.8333H16V21.5C16 22.6046 15.1046 23.5 14 23.5H6C3.79086 23.5 2 21.7091 2 19.5V9.5C2 8.39543 2.89543 7.5 4 7.5H10.9091Z" fill="#57530A"/>
<path d="M16 12.8333L14.5533 14.2143C14.9306 14.6096 15.4534 14.8333 16 14.8333V12.8333ZM10.9091 7.5L12.3558 6.11905C11.9784 5.72369 11.4556 5.5 10.9091 5.5V7.5ZM16 12.8333H18C18 11.7288 17.1046 10.8333 16 10.8333V12.8333ZM17.4467 11.4524L12.3558 6.11905L9.46235 8.88095L14.5533 14.2143L17.4467 11.4524ZM16 10.8333H16V14.8333H16V10.8333ZM14 12.8333V21.5H18V12.8333H14ZM14 21.5V25.5C16.2091 25.5 18 23.7091 18 21.5H14ZM14 21.5H6V25.5H14V21.5ZM6 21.5C4.89543 21.5 4 20.6046 4 19.5H0C0 22.8137 2.68629 25.5 6 25.5V21.5ZM4 19.5V9.5H0V19.5H4ZM4 9.5V5.5C1.79086 5.5 0 7.29086 0 9.5H4ZM4 9.5H10.9091V5.5H4V9.5Z" fill="#DBDB10" mask="url(#path-1-outside-1_232_12141)"/>
<mask id="path-3-outside-2_232_12141" maskUnits="userSpaceOnUse" x="5" y="0" width="18" height="20" fill="black">
<rect fill="white" x="5" width="18" height="20"/>
<path fill-rule="evenodd" clip-rule="evenodd" d="M15.909 2.00002L20.9999 7.33335H21V16C21 17.1046 20.1046 18 19 18H7V4C7 2.89543 7.89543 2 9 2H15.909V2.00002Z"/>
</mask>
<path fill-rule="evenodd" clip-rule="evenodd" d="M15.909 2.00002L20.9999 7.33335H21V16C21 17.1046 20.1046 18 19 18H7V4C7 2.89543 7.89543 2 9 2H15.909V2.00002Z" fill="#57530A"/>
<path d="M20.9999 7.33335L19.5532 8.7143C19.9306 9.10967 20.4534 9.33335 20.9999 9.33335V7.33335ZM15.909 2.00002H13.909C13.909 2.51436 14.1072 3.00892 14.4623 3.38097L15.909 2.00002ZM21 7.33335H23C23 6.22878 22.1046 5.33335 21 5.33335V7.33335ZM7 18H5C5 19.1046 5.89543 20 7 20V18ZM15.909 2H17.909C17.909 0.89543 17.0136 0 15.909 0V2ZM22.4466 5.9524L17.3557 0.619069L14.4623 3.38097L19.5532 8.7143L22.4466 5.9524ZM21 5.33335H20.9999V9.33335H21V5.33335ZM19 7.33335V16H23V7.33335H19ZM19 16V20C21.2091 20 23 18.2091 23 16H19ZM19 16H7V20H19V16ZM9 18V4H5V18H9ZM9 4V0C6.79086 0 5 1.79086 5 4H9ZM9 4H15.909V0H9V4ZM17.909 2.00002V2H13.909V2.00002H17.909Z" fill="#DBDB10" mask="url(#path-3-outside-2_232_12141)"/>
<mask id="path-5-outside-3_232_12141" maskUnits="userSpaceOnUse" x="14" y="0" width="9" height="9" fill="black">
<rect fill="white" x="14" width="9" height="9"/>
<path fill-rule="evenodd" clip-rule="evenodd" d="M16 2H16L21 7H18C16.8954 7 16 6.10457 16 5V2Z"/>
</mask>
<path fill-rule="evenodd" clip-rule="evenodd" d="M16 2H16L21 7H18C16.8954 7 16 6.10457 16 5V2Z" fill="#57530A"/>
<path d="M16 2V0.6C15.2268 0.6 14.6 1.2268 14.6 2L16 2ZM16 2L16.99 1.01005C16.7274 0.7475 16.3713 0.6 16 0.6V2ZM21 7V8.4C21.5663 8.4 22.0768 8.0589 22.2934 7.53576C22.5101 7.01261 22.3904 6.41045 21.99 6.01005L21 7ZM16 3.4H16V0.6H16V3.4ZM15.0101 2.98995L20.0101 7.98995L21.99 6.01005L16.99 1.01005L15.0101 2.98995ZM21 5.6H18V8.4H21V5.6ZM18 5.6C17.6686 5.6 17.4 5.33137 17.4 5H14.6C14.6 6.87777 16.1222 8.4 18 8.4V5.6ZM17.4 5V2H14.6V5H17.4Z" fill="#DBDB10" mask="url(#path-5-outside-3_232_12141)"/>
</svg>
