<svg  viewBox="0 0 144 144" fill="none" xmlns="http://www.w3.org/2000/svg">
<path opacity="0.15" d="M33.0223 35.5377C29.0845 39.7511 25.8223 44.6044 23.3956 49.9288L6.96008 43.12C10.2845 35.6266 14.8712 28.8177 20.4445 22.96L33.0223 35.5377Z" fill="white"/>
<path opacity="0.2" d="M22.0356 53.2089C20.0356 58.5156 18.8622 64.2312 18.6756 70.1956H0.888916C1.08447 61.8312 2.73781 53.8134 5.60003 46.4089L22.0356 53.2089Z" fill="white"/>
<path opacity="0.25" d="M22.0356 90.7379L5.60892 97.5379C2.7378 90.1334 1.09336 82.1246 0.888916 73.7512H18.6756C18.8622 79.7068 20.0356 85.4223 22.0356 90.7379Z" fill="white"/>
<path opacity="0.3" d="M33.0312 108.409L20.4534 120.987C14.8801 115.129 10.2934 108.32 6.96899 100.827L23.4046 94.0178C25.8223 99.3423 29.0934 104.196 33.0312 108.409Z" fill="white"/>
<path opacity="0.35" d="M49.9379 120.551L43.129 136.987C35.6357 133.662 28.8268 129.076 22.969 123.502L35.5468 110.925C39.7601 114.862 44.6134 118.133 49.9379 120.551Z" fill="white"/>
<path opacity="0.4" d="M70.1956 125.271V143.058C61.8223 142.853 53.8134 141.209 46.4089 138.347L53.2178 121.911C58.5245 123.911 64.24 125.084 70.1956 125.271Z" fill="white"/>
<path opacity="0.45" d="M97.5378 138.347C90.1333 141.209 82.1155 142.862 73.7511 143.058V125.271C79.7067 125.084 85.4222 123.911 90.7289 121.911L97.5378 138.347Z" fill="white"/>
<path opacity="0.5" d="M120.987 123.502C115.129 129.076 108.32 133.662 100.827 136.987L94.0178 120.551C99.3423 118.125 104.196 114.862 108.409 110.925L120.987 123.502Z" fill="white"/>
<path opacity="0.55" d="M136.978 100.827C133.662 108.32 129.076 115.129 123.502 120.987L110.925 108.409C114.862 104.196 118.125 99.3423 120.542 94.0178L136.978 100.827Z" fill="white"/>
<path opacity="0.6" d="M143.058 73.7512C142.853 82.1246 141.209 90.1334 138.347 97.5379L121.911 90.729C123.911 85.4223 125.084 79.7068 125.271 73.7512H143.058Z" fill="white"/>
<path opacity="0.65" d="M143.058 70.1956H125.271C125.084 64.24 123.911 58.5245 121.911 53.2178L138.347 46.4089C141.209 53.8134 142.862 61.8312 143.058 70.1956Z" fill="white"/>
<path opacity="0.7" d="M136.987 43.129L120.551 49.9379C118.133 44.6134 114.871 39.7512 110.933 35.5379L123.502 22.969C129.084 28.8268 133.671 35.6357 136.987 43.129Z" fill="white"/>
<path opacity="0.75" d="M120.987 20.4533L108.418 33.0222C104.205 29.0844 99.3512 25.8133 94.0267 23.3955L100.827 6.95996C108.32 10.2844 115.129 14.8711 120.987 20.4533Z" fill="white"/>
<path opacity="0.8" d="M97.5467 5.60003L90.7378 22.0356C85.4311 20.0356 79.7155 18.8622 73.7511 18.6756V0.888916C82.1244 1.08447 90.1333 2.73781 97.5467 5.60003Z" fill="white"/>
<path opacity="0.05" d="M70.1956 0.888916V18.6756C64.24 18.8622 58.5245 20.0356 53.2178 22.0356L46.4089 5.60003C53.8134 2.73781 61.8223 1.09336 70.1956 0.888916Z" fill="white"/>
<path opacity="0.1" d="M49.929 23.3955C44.6045 25.8222 39.7512 29.0844 35.5379 33.0222L22.9601 20.4444C28.8267 14.8711 35.6356 10.2844 43.129 6.95996L49.929 23.3955Z" fill="white"/>
</svg>
