<svg width="27" height="24" viewBox="0 0 27 24" fill="none" xmlns="http://www.w3.org/2000/svg">
<path fill-rule="evenodd" clip-rule="evenodd" d="M10.4424 23.7225C9.74812 23.6724 9.15242 23.1759 8.98015 22.4778L7.17679 15.1709L1.39943 13.5748C-0.344875 13.0929 -0.50027 10.648 1.16872 9.94356L24.3687 0.151602C25.7917 -0.448987 27.2909 0.8276 26.9513 2.35082L22.5079 22.2842C22.1576 23.8552 20.3136 24.524 19.0586 23.5352L14.7634 20.1512L11.7103 23.2438C11.558 23.3981 11.3809 23.5168 11.1903 23.5979C11.0619 23.6527 10.9252 23.6912 10.7829 23.7111C10.6705 23.7269 10.5563 23.7308 10.4424 23.7225ZM12.5053 20.1069L14.6285 17.9562L20.0579 22.2338C20.3716 22.481 20.8326 22.3138 20.9202 21.921L25.3637 1.98767C25.4122 1.77007 25.198 1.5877 24.9947 1.6735L1.79473 11.4655C1.55631 11.5661 1.5785 11.9154 1.82769 11.9842L6.95438 13.4005C6.99659 13.2437 7.06184 13.0927 7.14928 12.9527C7.38731 12.5717 7.76898 12.3061 8.20544 12.2177L11.5963 11.5307C11.7809 11.4933 11.9677 11.4891 12.1491 11.5157L19.3532 6.90679C19.6268 6.73174 19.9187 7.10163 19.6899 7.33342L13.4918 13.6119L12.5053 20.1069Z" fill="#DBDB10"/>
<path d="M10.9146 21.9889C10.9099 22.0308 10.932 22.0711 10.9698 22.0897C11.0076 22.1083 11.053 22.1012 11.0834 22.072L15.2866 18.0181L20.5697 21.8911C20.5699 21.8912 20.5701 21.8914 20.5703 21.8915C20.942 22.1697 21.4929 21.9847 21.5987 21.5328L26.0903 2.34605C26.1597 2.04995 25.8558 1.81832 25.5827 1.92806L2.13148 11.3533C1.79947 11.4867 1.83333 11.9518 2.17664 12.0421L8.94636 13.823C8.97264 13.8299 9.00061 13.8258 9.02382 13.8117L19.9695 7.14352C20.0594 7.08874 20.1486 7.11719 20.201 7.18041C20.2527 7.24271 20.2603 7.32734 20.1883 7.3968L11.6445 15.638C11.6277 15.6542 11.6171 15.6757 11.6145 15.6989L10.9146 21.9889Z" fill="#57530A" stroke="#57530A" stroke-width="0.2" stroke-linejoin="round"/>
</svg>
